Normalized EMG Linear Envelopes																
nRows=85																
nColumns=17																
																
endheader																
time	        VM	        VL	        RF	       GRA	        TA	   ADDLONG	   SEMIMEM	      BFLH	        GM	        GL	       TFL	   GLUTMAX	   GLUTMED	      PIRI	    OBTINT	        QF
0.3475	0.091143	0.138446	0.589111	0.055568	0.337205	0.062281	0.002348	0.016058	0.024219	0.042835	0.121189	0.05925	0.213429	0	0	0
0.348	0.092538	0.139146	0.589004	0.054894	0.332041	0.061939	0.002469	0.016006	0.024316	0.043072	0.119272	0.059191	0.214607	0	0	0
0.3485	0.093956	0.139841	0.588855	0.05424	0.326908	0.061596	0.002606	0.015967	0.024423	0.043316	0.117368	0.059134	0.215829	0	0	0
0.349	0.095396	0.140531	0.588663	0.053606	0.321806	0.061253	0.002757	0.015942	0.024541	0.043566	0.11548	0.05908	0.217098	0	0	0
0.3495	0.096858	0.141215	0.588429	0.052992	0.316738	0.06091	0.002924	0.01593	0.024671	0.043822	0.113606	0.059027	0.218412	0	0	0
0.35	0.098343	0.141894	0.588153	0.052399	0.311704	0.060567	0.003106	0.015932	0.024812	0.044085	0.111748	0.058977	0.219772	0	0	0
0.3505	0.099849	0.142567	0.587837	0.051827	0.306707	0.060226	0.003304	0.015949	0.024966	0.044354	0.109905	0.058929	0.221178	0	0	0
0.351	0.101378	0.143234	0.587481	0.051275	0.301746	0.059885	0.003519	0.015981	0.025131	0.04463	0.108078	0.058884	0.222631	0	0	0
0.3515	0.10293	0.143896	0.587085	0.050744	0.296825	0.059546	0.00375	0.016029	0.025309	0.044913	0.106268	0.058841	0.224129	0	0	0
0.352	0.104503	0.144551	0.586649	0.050234	0.291944	0.059208	0.003999	0.016093	0.025499	0.045203	0.104474	0.0588	0.225674	0	0	0
0.3525	0.106099	0.145199	0.586174	0.049745	0.287104	0.058873	0.004265	0.016173	0.025702	0.045499	0.102697	0.058763	0.227266	0	0	0
0.353	0.107718	0.145841	0.58566	0.049276	0.282306	0.058541	0.004548	0.016271	0.025919	0.045803	0.100937	0.058727	0.228903	0	0	0
0.3535	0.109358	0.146476	0.585105	0.048829	0.277553	0.058211	0.00485	0.016387	0.026149	0.046113	0.099195	0.058695	0.230586	0	0	0
0.354	0.111021	0.147103	0.584511	0.048402	0.272845	0.057885	0.00517	0.016521	0.026392	0.046431	0.09747	0.058664	0.232316	0	0	0
0.3545	0.112706	0.147723	0.583876	0.047997	0.268183	0.057562	0.005508	0.016674	0.026649	0.046756	0.095764	0.058637	0.234091	0	0	0
0.355	0.114412	0.148335	0.583199	0.047613	0.263569	0.057244	0.005866	0.016846	0.026921	0.047088	0.094076	0.058612	0.235912	0	0	0
0.3555	0.11614	0.148939	0.58248	0.047251	0.259004	0.056929	0.006243	0.017039	0.027207	0.047427	0.092406	0.05859	0.237778	0	0	0
0.356	0.11789	0.149534	0.581719	0.04691	0.254489	0.056619	0.00664	0.017252	0.027507	0.047774	0.090754	0.058571	0.239688	0	0	0
0.3565	0.119661	0.15012	0.580913	0.04659	0.250025	0.056313	0.007056	0.017486	0.027823	0.048128	0.089122	0.058555	0.241643	0	0	0
0.357	0.121453	0.150696	0.580062	0.046293	0.245613	0.056013	0.007494	0.017742	0.028154	0.048489	0.087509	0.058542	0.243642	0	0	0
0.3575	0.123266	0.151262	0.579164	0.046017	0.241255	0.055718	0.007952	0.018021	0.0285	0.048858	0.085914	0.058532	0.245685	0	0	0
0.358	0.125099	0.151818	0.578218	0.045764	0.23695	0.055429	0.008431	0.018323	0.028862	0.049234	0.084339	0.058525	0.24777	0	0	0
0.3585	0.126952	0.152361	0.577223	0.045533	0.232701	0.055146	0.008932	0.018648	0.02924	0.049618	0.082784	0.058521	0.249897	0	0	0
0.359	0.128824	0.152893	0.576177	0.045323	0.228508	0.054869	0.009454	0.018997	0.029634	0.050009	0.081248	0.058521	0.252067	0	0	0
0.3595	0.130716	0.153412	0.575078	0.045136	0.224371	0.054599	0.009999	0.019371	0.030045	0.050407	0.079731	0.058525	0.254277	0	0	0
0.36	0.132627	0.153918	0.573924	0.044972	0.220292	0.054336	0.010566	0.019771	0.030473	0.050813	0.078235	0.058533	0.256528	0	0	0
0.3605	0.134556	0.154409	0.572714	0.04483	0.21627	0.054081	0.011156	0.020196	0.030917	0.051227	0.076758	0.058544	0.258819	0	0	0
0.361	0.136503	0.154886	0.571447	0.044711	0.212308	0.053833	0.01177	0.020648	0.03138	0.051647	0.0753	0.05856	0.261149	0	0	0
0.3615	0.138467	0.155348	0.57012	0.044614	0.208404	0.053592	0.012407	0.021127	0.031859	0.052076	0.073863	0.05858	0.263517	0	0	0
0.362	0.140448	0.155793	0.568732	0.04454	0.20456	0.05336	0.013068	0.021634	0.032357	0.052511	0.072445	0.058604	0.265923	0	0	0
0.3625	0.142445	0.156222	0.567281	0.044489	0.200777	0.053136	0.013753	0.022169	0.032873	0.052954	0.071047	0.058634	0.268367	0	0	0
0.363	0.144457	0.156634	0.565766	0.044461	0.197053	0.052921	0.014463	0.022732	0.033408	0.053404	0.069668	0.058668	0.270846	0	0	0
0.3635	0.146484	0.157027	0.564184	0.044455	0.193391	0.052714	0.015198	0.023325	0.033961	0.053862	0.068309	0.058707	0.273362	0	0	0
0.364	0.148525	0.157402	0.562535	0.044473	0.189789	0.052517	0.015958	0.023947	0.034534	0.054326	0.06697	0.058752	0.275912	0	0	0
0.3645	0.150579	0.157757	0.560818	0.044513	0.186249	0.052329	0.016744	0.0246	0.035126	0.054798	0.065651	0.058802	0.278496	0	0	0
0.365	0.152646	0.158092	0.559032	0.044577	0.182771	0.05215	0.017556	0.025284	0.035737	0.055277	0.064351	0.058858	0.281114	0	0	0
0.3655	0.154724	0.158406	0.557175	0.044664	0.179354	0.051981	0.018394	0.025999	0.036368	0.055763	0.06307	0.05892	0.283763	0	0	0
0.366	0.156814	0.158698	0.555249	0.044773	0.176	0.051821	0.019259	0.026746	0.037019	0.056255	0.061808	0.058987	0.286444	0	0	0
0.3665	0.158913	0.158967	0.553252	0.044906	0.172707	0.051671	0.020151	0.027526	0.037691	0.056754	0.060566	0.059061	0.289154	0	0	0
0.367	0.161021	0.159213	0.551184	0.045062	0.169477	0.051532	0.02107	0.028338	0.038383	0.05726	0.059343	0.059141	0.291894	0	0	0
0.3675	0.163137	0.159436	0.549045	0.045241	0.166309	0.051403	0.022017	0.029184	0.039096	0.057772	0.058138	0.059228	0.294662	0	0	0
0.368	0.16526	0.159633	0.546833	0.045444	0.163203	0.051284	0.022993	0.030064	0.03983	0.058291	0.056952	0.05932	0.297456	0	0	0
0.3685	0.16739	0.159805	0.544549	0.045669	0.16016	0.051176	0.023996	0.030979	0.040585	0.058815	0.055785	0.05942	0.300276	0	0	0
0.369	0.169526	0.159951	0.542191	0.045918	0.157179	0.051078	0.025028	0.031929	0.041362	0.059346	0.054636	0.059526	0.303121	0	0	0
0.3695	0.171665	0.16007	0.539758	0.04619	0.15426	0.050991	0.026089	0.032914	0.04216	0.059882	0.053505	0.059639	0.30599	0	0	0
0.37	0.173808	0.160161	0.537249	0.046486	0.151403	0.050916	0.02718	0.033935	0.042981	0.060424	0.052392	0.059758	0.308881	0	0	0
0.3705	0.175954	0.160224	0.534663	0.046805	0.148609	0.050851	0.0283	0.034993	0.043823	0.060971	0.051298	0.059884	0.311795	0	0	0
0.371	0.1781	0.160258	0.531999	0.047148	0.145876	0.050798	0.02945	0.036089	0.044688	0.061523	0.050221	0.060017	0.314729	0	0	0
0.3715	0.180247	0.160262	0.529257	0.047515	0.143206	0.050756	0.03063	0.037221	0.045575	0.06208	0.049163	0.060157	0.317682	0	0	0
0.372	0.182393	0.160237	0.526436	0.047906	0.140597	0.050726	0.031841	0.038392	0.046486	0.062642	0.048122	0.060304	0.320654	0	0	0
0.3725	0.184536	0.16018	0.523538	0.04832	0.138051	0.050707	0.033083	0.039602	0.047419	0.063208	0.047098	0.060458	0.323643	0	0	0
0.373	0.186677	0.160093	0.520563	0.048759	0.135566	0.0507	0.034356	0.040851	0.048375	0.063778	0.046093	0.060618	0.326648	0	0	0
0.3735	0.188812	0.159974	0.517512	0.049222	0.133142	0.050706	0.03566	0.042139	0.049355	0.064353	0.045104	0.060786	0.329668	0	0	0
0.374	0.190942	0.159823	0.514387	0.04971	0.130781	0.050724	0.036997	0.043468	0.050358	0.064931	0.044134	0.060961	0.332703	0	0	0
0.3745	0.193065	0.159641	0.511187	0.050222	0.128481	0.050754	0.038366	0.044838	0.051384	0.065512	0.04318	0.061142	0.33575	0	0	0
0.375	0.19518	0.159426	0.507915	0.050759	0.126243	0.050797	0.039767	0.046249	0.052434	0.066096	0.042244	0.061331	0.33881	0	0	0
0.3755	0.197286	0.159179	0.504572	0.051322	0.124065	0.050853	0.041202	0.047701	0.053509	0.066683	0.041325	0.061526	0.34188	0	0	0
0.376	0.199382	0.1589	0.501159	0.051909	0.12195	0.050921	0.042669	0.049196	0.054607	0.067273	0.040422	0.061729	0.34496	0	0	0
0.3765	0.201466	0.15859	0.497677	0.052522	0.119895	0.051003	0.04417	0.050734	0.055729	0.067865	0.039537	0.061938	0.348049	0	0	0
0.377	0.203537	0.158248	0.494128	0.05316	0.117902	0.051097	0.045705	0.052315	0.056876	0.068458	0.038669	0.062154	0.351145	0	0	0
0.3775	0.205596	0.157875	0.490515	0.053824	0.11597	0.051205	0.047274	0.05394	0.058047	0.069053	0.037817	0.062377	0.354247	0	0	0
0.378	0.207639	0.157472	0.486837	0.054514	0.114099	0.051326	0.048877	0.055609	0.059243	0.06965	0.036981	0.062607	0.357353	0	0	0
0.3785	0.209668	0.157038	0.483098	0.055229	0.112288	0.051461	0.050515	0.057323	0.060463	0.070247	0.036162	0.062844	0.360463	0	0	0
0.379	0.211679	0.156573	0.479298	0.05597	0.110538	0.051609	0.052187	0.059082	0.061708	0.070845	0.035358	0.063087	0.363574	0	0	0
0.3795	0.213673	0.156079	0.47544	0.056737	0.108848	0.051771	0.053895	0.060886	0.062977	0.071444	0.034571	0.063337	0.366686	0	0	0
0.38	0.215649	0.155555	0.471524	0.05753	0.107219	0.051946	0.055638	0.062736	0.064272	0.072042	0.0338	0.063593	0.369796	0	0	0
0.3805	0.217604	0.155001	0.467553	0.05835	0.105649	0.052135	0.057417	0.064633	0.065591	0.072641	0.033044	0.063856	0.372903	0	0	0
0.381	0.219539	0.154419	0.463527	0.059195	0.10414	0.052338	0.059231	0.066576	0.066934	0.073239	0.032303	0.064125	0.376005	0	0	0
0.3815	0.221451	0.153809	0.459449	0.060067	0.102689	0.052555	0.061081	0.068567	0.068303	0.073836	0.031578	0.0644	0.3791	0	0	0
0.382	0.223341	0.153171	0.455319	0.060965	0.101298	0.052785	0.062967	0.070605	0.069696	0.074431	0.030868	0.06468	0.382186	0	0	0
0.3825	0.225208	0.152507	0.451139	0.061889	0.099966	0.053029	0.06489	0.07269	0.071114	0.075026	0.030172	0.064967	0.385262	0	0	0
0.383	0.227049	0.151816	0.44691	0.062839	0.098692	0.053288	0.066849	0.074824	0.072557	0.075619	0.029492	0.065258	0.388324	0	0	0
0.3835	0.228865	0.151099	0.442634	0.063816	0.097476	0.053559	0.068844	0.077006	0.074024	0.076211	0.028826	0.065555	0.391371	0	0	0
0.384	0.230655	0.150358	0.438313	0.064819	0.096318	0.053845	0.070876	0.079237	0.075516	0.076801	0.028174	0.065857	0.3944	0	0	0
0.3845	0.232416	0.149593	0.433947	0.065848	0.095218	0.054145	0.072944	0.081517	0.077033	0.07739	0.027536	0.066164	0.397409	0	0	0
0.385	0.234149	0.148803	0.429538	0.066904	0.094175	0.054458	0.075049	0.083846	0.078573	0.077977	0.026912	0.066475	0.400396	0	0	0
0.3855	0.235853	0.147991	0.425087	0.067985	0.093188	0.054785	0.077191	0.086225	0.080138	0.078563	0.026302	0.06679	0.403356	0	0	0
0.386	0.237526	0.147156	0.420594	0.069093	0.092257	0.055126	0.07937	0.088653	0.081727	0.079147	0.025705	0.067109	0.406289	0	0	0
0.3865	0.239168	0.146299	0.416062	0.070227	0.091382	0.05548	0.081586	0.091132	0.083339	0.07973	0.025122	0.067432	0.409191	0	0	0
0.387	0.240777	0.14542	0.41149	0.071386	0.090562	0.055848	0.083838	0.09366	0.084975	0.080312	0.024551	0.067758	0.412059	0	0	0
0.3875	0.242354	0.14452	0.406882	0.072572	0.089797	0.05623	0.086128	0.096238	0.086634	0.080893	0.023994	0.068088	0.41489	0	0	0
0.388	0.243898	0.143599	0.402236	0.073783	0.089086	0.056624	0.088454	0.098867	0.088317	0.081473	0.023449	0.06842	0.417681	0	0	0
0.3885	0.245407	0.142659	0.397556	0.07502	0.088428	0.057032	0.090817	0.101546	0.090022	0.082053	0.022917	0.068756	0.42043	0	0	0
0.389	0.246881	0.141699	0.392842	0.076282	0.087824	0.057454	0.093216	0.104276	0.09175	0.082634	0.022397	0.069095	0.423134	0	0	0
0.3895	0.248318	0.140721	0.388096	0.077571	0.087272	0.057888	0.095652	0.107056	0.0935	0.083214	0.021889	0.069436	0.425789	0	0	0
